<svg width="799" height="763" viewBox="0 0 799 763" fill="none" xmlns="http://www.w3.org/2000/svg">
<path d="M138.83 727.579C105.364 703.358 56.9125 667.42 32.2358 634.299C7.44648 601.29 -7.08909 558.03 3.50272 518.149C14.0945 478.268 55.2223 445.71 95.674 453.709C133.872 461.257 157.873 498.321 177.366 532.006C144.351 467.679 110.998 402.337 95.336 331.814C79.6736 261.29 83.2794 183.444 120.801 121.595C158.323 59.7457 234.832 19.0764 304.919 36.9889C378.498 55.8027 425.71 132.185 434.387 207.552C443.176 282.92 421.541 358.175 400.132 431.065C371.061 529.978 341.99 628.891 312.919 727.805L138.83 727.579Z" fill="#FCE8E8"/>
<path d="M654.898 727.579C689.829 706.85 722.168 686.347 749.887 656.718C777.606 627.089 798.001 588.56 798.113 547.891C798.226 529.302 793.719 510.038 781.437 496.068C761.605 473.311 725.886 470.495 697.716 481.31C669.547 492.012 647.011 513.643 625.377 534.597C603.404 555.889 581.432 577.182 559.459 598.474C600.137 554.199 634.278 503.841 660.307 449.653C675.857 417.095 688.702 382.059 687.125 346.008C685.547 309.958 666.504 272.894 633.377 258.586C594.953 242.025 548.642 260.839 520.811 291.933C492.866 323.026 479.232 364.034 466.161 403.802C430.555 512.854 396.526 618.527 360.919 727.579H654.898Z" fill="#FCE8E8"/>
<path d="M541.105 563.179C526.269 530.858 538.668 478.296 546.404 458.267C554.14 438.238 553.186 432.198 562.617 412.911C572.049 393.624 578.831 372.006 574.698 351.024C569.506 324.743 548.629 304.926 529.342 286.381C510.055 267.73 490.345 246.112 488.649 219.407C515.884 223.01 545.132 211.353 560.498 188.675C575.864 165.997 575.334 133.04 557.531 112.163C552.338 106.123 545.874 101.142 538.88 97.3273C521.818 88.1078 501.154 85.7764 482.503 91.075C463.852 96.3736 447.532 109.302 437.995 126.258C399.315 116.72 347.177 119.475 313.69 140.988C286.985 158.155 269.394 187.933 261.764 218.771C192.034 500.126 279.249 408.99 315.173 500.126C352.158 594.335 541.105 563.179 541.105 563.179Z" fill="#FF577F"/>
<path d="M179.106 664.276C178.682 714.931 192.14 788.369 252.226 867C363.92 867 771.464 867 771.464 867L674.809 560.075C658.701 526.376 486.742 453.18 365.722 453.18C246.822 453.18 180.06 556.821 179.106 664.276Z" fill="#3D49E0"/>
<path d="M308.18 200.756C287.516 222.48 226.476 325.908 329.904 367.343C324.712 370.416 411.608 352.825 411.608 352.825C411.608 352.825 473.708 384.935 494.372 326.968C503.698 298.038 474.768 263.809 429.2 284.261C390.414 258.192 415.423 221.632 402.813 204.889C349.615 221.95 308.18 200.756 308.18 200.756Z" fill="#FFC152"/>
<path d="M421.463 336.294L411.607 352.825L458.129 464.519C458.129 464.519 401.434 529.162 364.132 510.087C326.936 490.906 303.94 340.956 303.94 340.956L421.463 336.294Z" fill="#FFC152"/>
<path d="M432.484 330.041L431.53 329.511C438.206 316.265 455.692 298.038 465.335 300.899L465.017 301.959C456.752 299.521 439.69 315.629 432.484 330.041Z" fill="black"/>
<path d="M398.891 242.191C389.036 232.017 368.053 226.083 355.867 227.567L355.761 226.401C368.265 224.917 389.672 231.064 399.633 241.449L398.891 242.191Z" fill="black"/>
<path d="M324.923 215.062C324.817 214.85 324.499 214.214 322.697 213.472C313.478 209.763 292.601 209.975 287.833 213.048L287.197 212.095C293.237 208.174 315.597 209.445 323.015 212.413C324.817 213.154 325.771 213.896 325.982 214.85L324.923 215.062Z" fill="black"/>
<path d="M315.81 240.601C314.432 237.104 303.623 228.52 295.039 227.249L295.251 226.189C303.835 227.461 315.174 235.938 316.975 240.177L315.81 240.601Z" fill="black"/>
<path d="M383.525 256.073C375.895 252.364 354.595 253.318 347.601 254.695L347.389 253.636C354.701 252.152 376.001 251.198 384.055 255.013L383.525 256.073Z" fill="black"/>
<path d="M300.655 247.383C298.748 247.383 297.37 246.218 296.946 244.204C295.78 239.753 298.748 231.699 303.304 229.262L303.834 230.216C299.701 232.441 297.052 239.965 298.006 243.886C298.43 245.476 299.277 246.218 300.655 246.218C306.377 246.218 310.722 234.773 310.828 234.667L311.888 235.091C311.676 235.514 307.119 247.383 300.655 247.383Z" fill="black"/>
<path d="M360.847 269.108C360.741 269.108 360.53 269.108 360.424 269.108C358.516 268.896 357.032 267.624 356.079 265.398C354.701 262.113 355.019 256.497 358.304 252.682L359.152 253.424C356.185 256.921 355.867 261.901 357.138 264.975C357.88 266.776 359.046 267.836 360.53 267.942C362.437 268.154 363.921 266.882 364.874 265.716C367.524 262.537 368.689 257.133 367.524 253.212L368.583 252.894C369.855 257.133 368.583 262.961 365.722 266.458C364.239 268.154 362.543 269.108 360.847 269.108Z" fill="black"/>
<path d="M304.047 287.547C299.49 285.745 297.583 275.784 297.477 275.36L297.371 275.042L297.583 274.83C297.795 274.618 321.32 250.139 326.937 245.158C331.918 240.813 334.143 237.104 333.613 234.349L334.673 234.137C335.309 237.422 332.977 241.237 327.573 246.006C322.274 250.669 300.868 273.029 298.537 275.466C298.854 277.055 300.762 285.109 304.365 286.487L304.047 287.547Z" fill="black"/>
<path d="M325.029 316.159C299.066 316.159 288.999 304.82 287.833 301.323L288.893 301.005C289.953 304.29 303.623 319.656 341.561 313.722L341.773 314.781C335.627 315.735 330.01 316.159 325.029 316.159Z" fill="black"/>
<path d="M364.238 307.151C370.91 307.151 376.319 301.743 376.319 295.071C376.319 288.399 370.91 282.99 364.238 282.99C357.566 282.99 352.157 288.399 352.157 295.071C352.157 301.743 357.566 307.151 364.238 307.151Z" fill="#FF577F"/>
<path d="M284.124 276.949C289.801 276.949 294.403 272.347 294.403 266.67C294.403 260.993 289.801 256.391 284.124 256.391C278.447 256.391 273.844 260.993 273.844 266.67C273.844 272.347 278.447 276.949 284.124 276.949Z" fill="#FF577F"/>
<path d="M344.315 372.006C328.314 369.463 316.975 363.846 310.192 359.501C302.88 354.839 299.383 350.706 299.171 350.6L300.019 349.858C300.125 350.07 314.325 366.178 344.421 370.946L344.315 372.006Z" fill="black"/>
<path d="M458.765 152.539L457.599 152.433C460.461 114.283 467.773 88.4257 495.855 77.5106L496.279 78.5703C468.832 89.2735 461.626 114.813 458.765 152.539Z" fill="black"/>
<path d="M477.204 170.342L477.099 169.176C486.742 168.54 504.333 159.851 523.09 146.498C542.589 132.616 558.379 117.25 565.267 105.275L566.221 105.805C550.749 132.722 497.763 168.964 477.204 170.342Z" fill="black"/>
<path d="M520.971 203.723C508.678 203.723 495.114 199.802 487.06 196.517L487.484 195.457C496.492 199.166 507.195 201.709 516.202 202.451C524.468 203.087 535.701 202.345 542.059 195.669L542.907 196.411C537.715 201.709 529.661 203.723 520.971 203.723Z" fill="black"/>
<path d="M311.465 186.344C305.425 186.344 299.596 185.284 294.192 182.741L294.722 181.681C309.664 188.887 329.056 183.694 342.727 177.972C356.079 172.355 370.067 163.878 382.148 154.022C393.169 145.015 401.011 136.113 402.919 130.285L403.978 130.603C399.739 142.895 372.293 166.739 343.151 178.926C334.037 182.741 322.592 186.344 311.465 186.344Z" fill="black"/>
<path d="M422.205 439.51L421.039 439.404C423.052 421.283 436.723 403.162 451.135 384.087C466.607 363.634 482.608 342.44 486.529 318.702C490.662 293.693 478.687 270.697 468.09 250.456C459.295 233.501 450.923 217.499 453.466 203.087L454.526 203.299C452.089 217.393 460.354 233.183 469.044 249.927C479.747 270.273 491.828 293.481 487.589 318.808C483.668 342.758 467.56 364.058 451.983 384.723C437.782 403.692 424.218 421.601 422.205 439.51Z" fill="black"/>
<path d="M476.781 500.55C472.542 496.735 482.291 457.101 508.042 419.799C537.079 377.835 543.861 346.149 531.674 310.542L532.734 310.225C545.132 346.149 538.244 378.152 508.996 420.435C482.715 458.479 474.237 496.629 477.523 499.702L476.781 500.55Z" fill="black"/>
<path d="M436.405 261.16C428.775 248.761 423.371 228.308 421.993 206.372C420.404 182.423 423.795 161.546 431.531 147.346L432.484 147.876C416.483 177.23 421.887 235.303 437.253 260.524L436.405 261.16Z" fill="black"/>
<path d="M289.62 77.3399C278.444 64.2123 275.34 46.2063 274.453 28.9986C274.098 21.8139 274.275 14.0083 278.267 8.06543C282.258 2.03386 291.572 -0.981934 296.894 3.89655C299.111 5.84794 300.264 8.68633 301.151 11.5247C303.724 19.5964 304.522 28.289 303.458 36.7154C306.296 28.0229 312.15 20.3947 319.69 15.3388C326.431 10.8151 336.72 8.95243 342.042 15.0727C347.541 21.3704 343.905 31.216 339.47 38.312C330.6 52.5927 319.246 65.3654 306.03 75.7433" stroke="#FF577F" stroke-width="2.1321" stroke-miterlimit="10" stroke-linecap="round" stroke-linejoin="round"/>
<path d="M99.199 330.352C98.4007 327.78 97.6024 325.208 97.7798 322.458C97.9572 319.797 99.3764 317.047 101.86 315.983C104.521 314.919 107.626 316.16 109.488 318.289C111.351 320.418 112.06 323.345 112.415 326.183C113.036 332.215 111.883 338.424 109.133 343.746C111.262 339.754 115.254 336.827 119.689 336.029C120.753 335.852 121.906 335.763 122.971 336.206C124.035 336.65 124.745 337.714 125.365 338.601C126.341 340.021 127.317 341.351 127.849 342.948C129.357 347.116 127.494 352.261 123.591 354.567C119.689 356.785 114.278 355.898 111.44 352.438C114.721 355.366 115.786 360.155 115.52 364.59C115.342 368.05 114.367 371.686 111.794 373.904C109.133 376.121 104.521 376.21 102.658 373.372C100.441 370.001 103.013 365.477 102.57 361.486C99.5538 368.493 96.0058 376.121 88.9985 379.314C87.4906 380.024 85.7167 380.379 84.3862 379.492C83.4105 378.782 82.967 377.629 82.7009 376.476C80.7495 368.493 85.5393 359.357 93.1674 356.341C89.7969 357.76 85.8054 358.027 82.4348 356.43C79.0642 354.833 76.6693 351.374 76.758 347.649C76.8467 343.923 79.7738 340.464 83.4992 340.109C87.1359 339.754 90.8612 343.125 90.5064 346.85C87.5794 343.923 84.4749 340.819 83.9427 336.739C83.3218 332.658 86.7811 327.869 90.7725 328.756C91.4821 328.933 92.103 329.199 92.7239 329.554C95.5623 331.328 97.2477 334.965 96.8042 338.247" stroke="#FF577F" stroke-width="2.1321" stroke-miterlimit="10" stroke-linecap="round" stroke-linejoin="round"/>
<path d="M498.673 596.787C498.052 591.465 497.608 585.7 500.269 580.999C502.487 577.185 506.478 574.79 509.405 571.596C513.752 566.807 515.881 560.066 514.905 553.679C516.147 559.356 517.3 565.033 518.542 570.709C518.719 571.508 518.896 572.395 519.606 572.927C521.823 574.701 525.638 570.177 527.589 572.306C529.629 574.524 524.662 579.225 527.412 580.378C528.032 580.644 528.742 580.466 529.363 580.378C532.911 579.757 536.814 581.353 538.854 584.369C535.838 585.345 534.419 588.716 532.822 591.554C528.032 600.158 518.364 605.835 508.518 605.835C505.591 605.835 501.955 604.593 501.866 601.666" stroke="white" stroke-width="2.1321" stroke-miterlimit="10" stroke-linecap="round" stroke-linejoin="round"/>
</svg>
