<svg width="41" height="30" viewBox="0 0 41 30" fill="none" xmlns="http://www.w3.org/2000/svg">
<path d="M8.45581 0.0519993C11.1198 0.0519993 13.2438 1.024 14.8278 2.96799C16.4838 4.84 17.3118 7.324 17.3118 10.42C17.3118 14.452 16.1238 18.232 13.7478 21.76C11.3718 25.216 8.41981 27.808 4.89181 29.536L4.24381 28.24C5.75581 27.088 7.08781 25.612 8.23981 23.812C9.39181 22.012 10.2198 19.78 10.7238 17.116L8.45581 16.576C5.93581 16 3.95581 14.956 2.51581 13.444C1.14781 11.86 0.463813 9.988 0.463813 7.828C0.463813 5.524 1.21981 3.652 2.73181 2.212C4.31581 0.771999 6.22381 0.0519993 8.45581 0.0519993ZM31.2438 0.0519993C33.9078 0.0519993 36.0318 1.024 37.6158 2.96799C39.2718 4.84 40.0998 7.324 40.0998 10.42C40.0998 14.452 38.9118 18.232 36.5358 21.76C34.1598 25.216 31.2078 27.808 27.6798 29.536L27.0318 28.24C28.5438 27.088 29.8758 25.612 31.0278 23.812C32.1798 22.012 33.0078 19.78 33.5118 17.116L31.2438 16.576C28.7238 16 26.7438 14.956 25.3038 13.444C23.9358 11.86 23.2518 9.988 23.2518 7.828C23.2518 5.524 24.0078 3.652 25.5198 2.212C27.1038 0.771999 29.0118 0.0519993 31.2438 0.0519993Z" fill="#FF577F"/>
</svg>
