<svg width="41" height="30" viewBox="0 0 41 30" fill="none" xmlns="http://www.w3.org/2000/svg">
<path d="M9.77981 29.536C7.11581 29.536 4.95581 28.6 3.29981 26.728C1.71581 24.784 0.923813 22.264 0.923813 19.168C0.923813 15.136 2.11181 11.392 4.48781 7.93599C6.86381 4.408 9.81581 1.78 13.3438 0.0519993L13.9918 1.348C12.4798 2.5 11.1478 3.976 9.99581 5.776C8.84381 7.57599 8.01581 9.80799 7.51181 12.472L9.77981 13.012C12.2998 13.588 14.2438 14.668 15.6118 16.252C17.0518 17.764 17.7718 19.6 17.7718 21.76C17.7718 24.064 16.9798 25.936 15.3958 27.376C13.8838 28.816 12.0118 29.536 9.77981 29.536ZM32.5678 29.536C29.9038 29.536 27.7438 28.6 26.0878 26.728C24.5038 24.784 23.7118 22.264 23.7118 19.168C23.7118 15.136 24.8998 11.392 27.2758 7.93599C29.6518 4.408 32.6038 1.78 36.1318 0.0519993L36.7798 1.348C35.2678 2.5 33.9358 3.976 32.7838 5.776C31.6318 7.57599 30.8038 9.80799 30.2998 12.472L32.5678 13.012C35.0878 13.588 37.0318 14.668 38.3998 16.252C39.8398 17.764 40.5598 19.6 40.5598 21.76C40.5598 24.064 39.7678 25.936 38.1838 27.376C36.6718 28.816 34.7998 29.536 32.5678 29.536Z" fill="#FF577F"/>
</svg>
